<?xml version="1.0" encoding="UTF-8" standalone="no"?>
<svg width="582px" height="117px" viewBox="0 0 582 117" version="1.1" xmlns="http://www.w3.org/2000/svg" xmlns:xlink="http://www.w3.org/1999/xlink" xmlns:sketch="http://www.bohemiancoding.com/sketch/ns">
    <!-- Generator: Sketch 3.3.3 (12081) - http://www.bohemiancoding.com/sketch -->
    <title>Shape</title>
    <desc>Created with Sketch.</desc>
    <defs>
        <filter x="-50%" y="-50%" width="200%" height="200%" filterUnits="objectBoundingBox" id="filter-1">
            <feOffset dx="0" dy="2" in="SourceAlpha" result="shadowOffsetOuter1"></feOffset>
            <feGaussianBlur stdDeviation="2" in="shadowOffsetOuter1" result="shadowBlurOuter1"></feGaussianBlur>
            <feColorMatrix values="0 0 0 0 0.733333333   0 0 0 0 0.0470588235   0 0 0 0 0  0 0 0 0.7 0" in="shadowBlurOuter1" type="matrix" result="shadowMatrixOuter1"></feColorMatrix>
            <feMerge>
                <feMergeNode in="shadowMatrixOuter1"></feMergeNode>
                <feMergeNode in="SourceGraphic"></feMergeNode>
            </feMerge>
        </filter>
    </defs>
    <g id="Page-1" stroke="none" stroke-width="1" fill="none" fill-rule="evenodd" sketch:type="MSPage">
        <path d="M307.6,69.3 C307,71.9 306.9,74.7 305.7,77 C304,80.2 302.2,83.8 299.4,85.9 C296.3,88.2 292.1,89.8 288.3,90.2 C268,92.2 259.6,85 252.2,66.9 C249.6,60.5 247.9,53.6 246.8,46.8 C246.2,43 247.1,38.5 248.6,35 C257.2,15.3 274.8,8.6 294,4.6 C295.1,4.4 296.3,3.9 297.4,4 C300.3,4.2 303.2,4.6 306,4.9 C305.4,8.2 305.4,11.9 304,14.8 C302.4,18.1 298.7,18.1 295.6,16.9 C285.1,12.7 275.6,14.2 266.3,20.4 C258,25.8 254.7,34.4 252.9,42.9 C250.5,54.5 253,66.9 265.7,75.7 C277.7,84 292.2,82.4 302.3,71.9 C303.4,70.8 304.6,69.8 305.8,68.7 C306.3,68.8 306.9,69.1 307.6,69.3 Z M27.3,91.4 C24.4,89.9 21.2,88.7 18.5,86.7 C12.2,82 7.9,75.8 5.2,68.4 C3.4,63.6 6.4,57.3 11.5,56.2 C12.4,56 14.4,57.4 14.5,58.2 C14.9,60.9 14.9,63.8 14.5,66.5 C13.3,75 17.9,82.9 26,84 C29,84.4 32.7,83.5 35.3,81.9 C43.2,77.1 52.4,62.5 48.8,50.4 C47.4,45.7 46.7,40.7 44.9,36.1 C42.5,29.7 39.1,23.8 33,19.9 C30.3,18.2 30.4,16.2 32.9,14.4 C38.5,10.5 44.1,6.6 49.8,2.9 C51.1,2.1 53.2,2.5 54.9,2.4 C54.9,4.1 55.4,5.9 54.8,7.4 C51.4,15.8 52.6,24.3 53.6,32.9 C54.6,41.6 56,50.4 55.8,59.1 C55.7,63.7 53.4,68.6 50.9,72.7 C48,77.3 43.9,81.1 40.1,85.1 C36.9,88.6 33,91.1 27.3,91.4 Z M137.4,66 C131.7,64 127.8,62.1 123.7,61.4 C121.9,61.1 118.2,63.1 117.9,64.5 C117.5,66.5 119,69.5 120.6,71.1 C122.6,72.9 125.6,73.6 128.1,74.7 C132.4,76.6 136.7,78.6 141.4,80.7 C141.9,54.8 143.9,29 132.6,4.4 C133.2,4.1 133.8,3.9 134.3,3.6 C135.5,4.1 136.9,4.4 138,5.1 C142.5,8.2 147.1,11.2 151.4,14.6 C152.4,15.4 153.2,17.9 152.8,19 C148.5,30 147.3,41.1 149.1,52.8 C149.8,57.1 148.7,61.7 148.5,66.2 C148.2,72.8 147.9,79.5 147.5,86.1 C147.4,87.5 146.9,88.9 146.2,90.1 C146,90.4 143.8,89.9 143.2,89.2 C137,82.3 127.9,80.7 120.1,76.8 C118.1,75.8 116,74.6 114.4,73 C111.5,70.2 108,66.1 110.4,62.7 C112.7,59.4 117.6,57.4 121.8,55.9 C125.4,54.6 129.6,54.9 133.5,54.1 C136.2,53.5 137.3,54.3 137.3,56.9 C137.4,59.8 137.4,62.8 137.4,66 Z M341.2,75.2 C343.9,78.8 346.3,81.3 347.9,84.3 C348.3,85 346.4,88 345.3,88.2 C338.1,89.1 330.8,90.5 323.7,89.8 C318.9,89.3 315.6,84.7 314.8,79.4 C314.1,74.2 317.2,71 321.3,68.5 C327.7,64.5 334.6,65.3 341.9,66.3 C341.7,62.4 339.4,60.9 336.5,61.1 C332.7,61.5 328.9,62.8 325.1,63.6 C323.5,63.9 321.8,64 320.1,64.1 C320,61.4 319.5,58.7 319.9,56.1 C320,55.2 322.4,53.9 323.6,53.9 C329.4,54.2 335.6,53.7 340.7,55.8 C345.6,57.7 349.6,62.3 353.8,65.9 C355.5,67.4 357,69.3 358.3,71.1 C359.1,72.2 360,73.6 360.1,74.9 C360.5,80.5 360.7,86 360.7,91.6 C360.7,93.2 359.9,94.8 359.4,96.4 C358,95.3 356,94.5 355.3,93.1 C353.4,89.3 351.9,85.2 350.5,81.1 C346.9,71.2 334.1,66.1 325,71.5 C323.3,72.5 321.8,75.4 321.8,77.4 C321.7,80.7 323.5,83.4 327.2,84.2 C333.7,86.1 337.5,84 341.2,75.2 Z M557.1,75.1 C559.9,78.7 562.3,81.1 563.8,84 C564.2,84.8 562,88.2 560.7,88.4 C553.9,89.4 546.9,90.6 540.1,89.9 C535.2,89.4 532,84.9 530.9,79.8 C529.9,75.1 532.7,71.9 536.2,69.3 C541.8,65.1 548.3,65.2 554.8,65.9 C555.8,66 556.9,66.1 558.2,66.2 C556.2,61 549.5,59.3 543.9,62.1 C543.3,62.4 542.8,63 542.2,63.1 C540.2,63.5 538.1,63.7 536,64 C536,61.3 535.5,58.5 536.2,56 C536.5,55.1 539.6,54.6 541.5,54.7 C544.3,54.7 547.2,56 549.8,55.5 C559.3,53.9 564.5,59.8 569.8,65.9 C570,66.1 570.1,66.6 570.3,66.7 C579,72.2 574.2,81.3 576.1,88.6 C576.7,91 579.2,94.8 575,96.2 C574.1,96.5 571.4,92.5 570.1,90.2 C567,84.8 564.7,78.8 561.1,73.8 C557.6,69 544.6,68.5 539.9,72.2 C536.4,74.9 536.8,80.8 540.7,83.3 C545.9,86.7 553.2,84.5 555.6,78.7 C555.8,78.2 556.1,77.6 557.1,75.1 Z M466.2,75.2 C468.9,78.6 471.3,80.9 472.7,83.6 C473.2,84.5 471.5,87.9 470.5,88.1 C463.2,89 455.7,90.4 448.4,89.6 C443.7,89.1 440.4,84.4 439.8,79.1 C439.2,74.1 442.4,71.2 446.2,68.7 C451.6,65.1 457.6,65.5 463.6,65.9 C464.7,66 465.8,66.1 467,66.1 C465.4,61.1 459.4,59.4 453.3,61.9 C452.4,62.3 451.6,63.1 450.7,63.3 C448.8,63.7 446.9,63.7 445,63.9 C445,61.2 444.6,58.4 445.2,55.9 C445.4,55 448.4,54.4 450.1,54.4 C452.9,54.4 455.8,55.8 458.4,55.4 C467.8,53.9 473.4,59.2 478.6,65.5 C478.8,65.8 479,66.1 479.2,66.3 C487.9,71.9 483.1,81.3 485.4,88.7 C485.7,89.6 486,90.7 485.8,91.6 C485.5,93.3 484.8,95 484.2,96.6 C482.9,95.4 481,94.4 480.3,92.9 C478.4,89 477.1,84.9 475.5,80.9 C471.8,71.3 460.1,66.5 450.7,71.2 C448.9,72.1 446.7,74.6 446.8,76.3 C447,78.8 448.4,82 450.4,83.3 C455.5,86.8 462.3,84.2 464.7,78.5 C464.9,78.1 465.2,77.5 466.2,75.2 Z M190.9,110.8 C189.4,109.8 188.5,109 187.4,108.5 C184.8,107.3 182.2,106.4 179.6,105.3 C177.7,104.5 175.3,104 174.2,102.6 C173.6,101.8 174.8,99 175.9,97.6 C180.7,91.1 180.4,89.9 175.4,83.3 C172,78.8 169.5,73.7 166.7,68.8 C164.9,65.8 162.9,62.9 161.6,59.7 C160.9,57.9 161.3,55.7 161.3,53.6 C164.8,53.5 168.4,53 171.9,53.5 C172.6,53.6 173.2,57.2 173.1,59.2 C173,61.8 171,65.2 172,66.9 C175.2,72.2 179.4,77.1 183.5,81.8 C183.9,82.3 187.3,81.4 187.9,80.3 C191,75 194,69.7 196.2,64 C196.9,62.3 194.9,59.5 193.9,57.3 C192.5,54.2 193,52.5 196.7,52.6 C199,52.6 201.4,52.4 203.7,52.7 C205.2,52.9 207.2,53.7 207.7,54.8 C208.2,55.9 207.5,57.9 206.8,59.3 C205.2,62.3 202.9,65 201.7,68.2 C198.5,76.5 194.2,84.1 187.6,90.2 C184.4,93.1 183.3,95.7 187.8,98.9 C191.4,101.5 191.9,105.7 190.9,110.8 Z M365.9,95.4 C368.5,85.2 371.5,76.2 373.1,66.9 C375.8,50.8 376.3,34.6 373.5,18.5 C372.9,15.1 371.1,12 369.6,8.8 C368.1,5.4 368.9,3.4 372.7,2.8 C382.4,1.3 381.9,1.3 380.7,11.3 C379.8,18.5 380.5,25.9 380.4,33.2 C380.4,42.8 380.5,52.5 380.3,62.1 C380.2,69.9 380.3,77.7 383.5,85 C384.5,87.4 384.3,89 381.5,90 C378,91.3 374.7,93.2 371.2,94.5 C369.7,95.2 367.9,95.1 365.9,95.4 Z M81.5,91.4 C77.5,90 73.2,89.3 69.7,87.2 C61.9,82.4 61.5,75.7 62.8,67.1 C63.7,61.2 72.5,56 79.2,55.6 C86.9,55.1 93.1,57.6 98.4,63 C105.4,70 104.7,80.2 96.6,86.2 C91.4,90 90.1,90.4 81.5,91.4 Z M83.2,62.2 C79.2,63.5 75.1,64.3 71.6,66.3 C66,69.4 65.7,76.6 70.5,80.4 C76.5,85.2 88.4,85.2 94.3,80.4 C99.4,76.3 99.3,69 93.6,65.8 C90.6,64.1 86.9,63.4 83.2,62.2 Z M413.3,85.9 C417,85.5 421.5,85.5 422,79.3 C422.1,78.3 424.6,76.6 425.5,76.9 C428.1,77.7 430.4,79.2 432.6,80.8 C432.8,81 431.6,84.1 430.4,84.9 C421.9,91.2 412.8,92.6 402.9,88.3 C390.8,83 389.1,69.5 398.6,60.6 C406.4,53.3 421.5,53.5 431.1,62.7 C431.7,63.3 432.3,65 432.1,65.1 C430,66.9 427.9,69 425.4,69.8 C424.3,70.1 421.8,68 420.9,66.4 C418.2,61.2 412.6,59.1 407.1,61.6 C402.5,63.7 397,71 397.7,74.1 C399.1,80.5 406.2,86 413.3,85.9 Z M493.1,90.7 C493.7,78.5 494.1,67.3 494.8,56.1 C494.9,55 496.2,53.9 496.9,52.8 C497.7,53.7 498.6,54.6 499.1,55.6 C499.5,56.4 499.5,57.5 499.5,57.6 C504.1,56.2 508.4,54.4 512.9,53.8 C515.4,53.5 518.3,54.8 520.8,55.9 C521.9,56.4 523.4,58.6 523.1,59.6 C522.6,61.2 521.1,63.1 519.5,63.7 C518.2,64.3 515.7,63.9 514.6,62.9 C512.7,61.3 512.4,56.6 508.7,58.7 C504.9,60.9 501.4,63.9 501.3,69.1 C501.2,73.6 501,78 504.1,81.9 C504.9,82.9 504.2,86.5 503.1,87.1 C499.9,88.9 496.2,89.7 493.1,90.7 Z" id="Shape" fill="#FFFFFF" filter="url(#filter-1)" sketch:type="MSShapeGroup"></path>
    </g>
</svg>